<svg width="112" height="104" viewBox="0 0 112 104" fill="none" xmlns="http://www.w3.org/2000/svg">
<g filter="url(#filter0_d)">
<circle cx="46" cy="45" r="45" fill="#1565C0"/>
</g>
<path d="M25.6284 50.5059H15.2036L12.8623 57H9.47852L18.9805 32.1172H21.8516L31.3706 57H28.0039L25.6284 50.5059ZM16.1948 47.8057H24.6543L20.416 36.1675L16.1948 47.8057ZM42.0518 45.9087C39.2376 45.0998 37.1868 44.1086 35.8994 42.9351C34.6234 41.7502 33.9854 40.2918 33.9854 38.5601C33.9854 36.6004 34.7658 34.9826 36.3267 33.7065C37.8989 32.4191 39.9383 31.7754 42.4448 31.7754C44.1538 31.7754 45.6748 32.1058 47.0078 32.7666C48.3522 33.4274 49.389 34.3389 50.1182 35.501C50.8587 36.6631 51.229 37.9334 51.229 39.312H47.9307C47.9307 37.8081 47.4521 36.6289 46.4951 35.7744C45.5381 34.9085 44.188 34.4756 42.4448 34.4756C40.827 34.4756 39.5623 34.8345 38.6509 35.5522C37.7508 36.2586 37.3008 37.2441 37.3008 38.5088C37.3008 39.5228 37.728 40.383 38.5825 41.0894C39.4484 41.7843 40.9124 42.4224 42.9746 43.0034C45.0482 43.5845 46.666 44.2282 47.8281 44.9346C49.0016 45.6296 49.8675 46.4442 50.4258 47.3784C50.9954 48.3127 51.2803 49.4121 51.2803 50.6768C51.2803 52.6934 50.4941 54.3112 48.9219 55.5303C47.3496 56.738 45.2476 57.3418 42.6157 57.3418C40.9067 57.3418 39.3117 57.0171 37.8306 56.3677C36.3494 55.7069 35.2044 54.8068 34.3955 53.6675C33.598 52.5282 33.1992 51.235 33.1992 49.7881H36.4976C36.4976 51.292 37.0501 52.4826 38.1553 53.3599C39.2718 54.2257 40.7586 54.6587 42.6157 54.6587C44.3475 54.6587 45.6748 54.3055 46.5977 53.5991C47.5205 52.8927 47.9819 51.93 47.9819 50.7109C47.9819 49.4919 47.5547 48.5519 46.7002 47.8911C45.8457 47.2189 44.2962 46.5581 42.0518 45.9087ZM59.7397 32.1172L67.8745 52.4199L76.0093 32.1172H80.2646V57H76.9834V47.3101L77.291 36.8511L69.1221 57H66.6099L58.458 36.9023L58.7827 47.3101V57H55.5015V32.1172H59.7397Z" fill="white"/>
<g filter="url(#filter1_d)">
<rect x="46" y="66" width="59" height="30" rx="10" fill="#E70000"/>
</g>
<path d="M66.8406 85.815C67.1699 85.815 67.4423 85.929 67.6576 86.157C67.8856 86.3723 67.9996 86.6257 67.9996 86.917C67.9996 87.2337 67.8856 87.4933 67.6576 87.696C67.4423 87.8987 67.1699 88 66.8406 88H60.4756C60.1463 88 59.8676 87.8923 59.6396 87.677C59.4243 87.449 59.3166 87.1703 59.3166 86.841V75.859C59.3166 75.5297 59.4243 75.2573 59.6396 75.042C59.8676 74.814 60.1463 74.7 60.4756 74.7H66.8406C67.1699 74.7 67.4423 74.8077 67.6576 75.023C67.8856 75.2257 67.9996 75.4917 67.9996 75.821C67.9996 76.1377 67.8919 76.3973 67.6766 76.6C67.4613 76.79 67.1826 76.885 66.8406 76.885H61.6916V80.115H65.9856C66.3149 80.115 66.5873 80.2227 66.8026 80.438C67.0306 80.6407 67.1446 80.9067 67.1446 81.236C67.1446 81.5527 67.0369 81.8123 66.8216 82.015C66.6063 82.205 66.3276 82.3 65.9856 82.3H61.6916V85.815H66.8406ZM80.1076 86.252C80.2596 86.4547 80.3356 86.689 80.3356 86.955C80.3356 87.2843 80.2153 87.5567 79.9746 87.772C79.734 87.9873 79.4743 88.095 79.1956 88.095C78.8283 88.095 78.518 87.9303 78.2646 87.601L74.8826 83.098L71.5956 87.563C71.3423 87.9177 71.0256 88.095 70.6456 88.095C70.367 88.095 70.1263 87.9937 69.9236 87.791C69.721 87.5883 69.6196 87.354 69.6196 87.088C69.6196 86.8093 69.7146 86.5497 69.9046 86.309L73.5716 81.35L69.9046 76.486C69.74 76.2833 69.6576 76.0553 69.6576 75.802C69.6576 75.4853 69.778 75.213 70.0186 74.985C70.2593 74.757 70.5253 74.643 70.8166 74.643C71.184 74.643 71.4943 74.8077 71.7476 75.137L75.0916 79.583L78.3596 75.232C78.4863 75.0547 78.632 74.9217 78.7966 74.833C78.9613 74.7317 79.126 74.681 79.2906 74.681C79.5693 74.681 79.8163 74.795 80.0316 75.023C80.247 75.2383 80.3546 75.479 80.3546 75.745C80.3546 75.9857 80.2723 76.2137 80.1076 76.429L76.4026 81.312L80.1076 86.252ZM91.3798 74.7C91.7218 74.7 92.0005 74.8013 92.2158 75.004C92.4312 75.2067 92.5388 75.4727 92.5388 75.802C92.5388 76.1313 92.4312 76.3973 92.2158 76.6C92.0005 76.79 91.7218 76.885 91.3798 76.885H88.3968V86.841C88.3968 87.1703 88.2765 87.449 88.0358 87.677C87.7952 87.8923 87.4975 88 87.1428 88C86.7882 88 86.4968 87.8923 86.2688 87.677C86.0408 87.449 85.9268 87.1703 85.9268 86.841V76.885H82.9438C82.6018 76.885 82.3232 76.7837 82.1078 76.581C81.8925 76.3783 81.7848 76.1123 81.7848 75.783C81.7848 75.4663 81.8925 75.2067 82.1078 75.004C82.3358 74.8013 82.6145 74.7 82.9438 74.7H91.3798Z" fill="white"/>
<defs>
<filter id="filter0_d" x="0" y="0" width="98" height="98" filterUnits="userSpaceOnUse" color-interpolation-filters="sRGB">
<feFlood flood-opacity="0" result="BackgroundImageFix"/>
<feColorMatrix in="SourceAlpha" type="matrix" values="0 0 0 0 0 0 0 0 0 0 0 0 0 0 0 0 0 0 127 0"/>
<feOffset dx="3" dy="4"/>
<feGaussianBlur stdDeviation="2"/>
<feColorMatrix type="matrix" values="0 0 0 0 0 0 0 0 0 0 0 0 0 0 0 0 0 0 0.25 0"/>
<feBlend mode="normal" in2="BackgroundImageFix" result="effect1_dropShadow"/>
<feBlend mode="normal" in="SourceGraphic" in2="effect1_dropShadow" result="shape"/>
</filter>
<filter id="filter1_d" x="45" y="66" width="67" height="38" filterUnits="userSpaceOnUse" color-interpolation-filters="sRGB">
<feFlood flood-opacity="0" result="BackgroundImageFix"/>
<feColorMatrix in="SourceAlpha" type="matrix" values="0 0 0 0 0 0 0 0 0 0 0 0 0 0 0 0 0 0 127 0"/>
<feOffset dx="3" dy="4"/>
<feGaussianBlur stdDeviation="2"/>
<feColorMatrix type="matrix" values="0 0 0 0 0 0 0 0 0 0 0 0 0 0 0 0 0 0 0.25 0"/>
<feBlend mode="normal" in2="BackgroundImageFix" result="effect1_dropShadow"/>
<feBlend mode="normal" in="SourceGraphic" in2="effect1_dropShadow" result="shape"/>
</filter>
</defs>
</svg>
